<svg id="Capa_1" enable-background="new 0 0 497 497" height="512" viewBox="0 0 497 497" width="512" xmlns="http://www.w3.org/2000/svg"><g><path d="m398.5 0h-30v497h30c16.569 0 30-13.431 30-30v-437c0-16.569-13.431-30-30-30z" fill="#5a6e78"/><path d="m368.5 0h-270c-16.569 0-30 13.431-30 30v437c0 16.569 13.431 30 30 30h30l270-300v-30l-45-68.5 45-68.5c0-16.569-13.431-30-30-30z" fill="#6f8b94"/><path d="m368.5 197-30 300h30c16.569 0 30-13.431 30-30v-270z" fill="#81a0a8"/><path d="m368.5 467-30-60 30-60v-30l-15-15 15-15v-30l-15-15 15-15v-30h-270v270c0 16.569 13.431 30 30 30h210c16.569 0 30-13.431 30-30z" fill="#93b7c0"/><path d="m338.5 317-15-15 15-15h30v30z" fill="#bdf2ff"/><path d="m308.5 287h30v30h-30z" fill="#fff"/><path d="m248.5 467-15-30 15-30h30v60z" fill="#5a6e78"/><path d="m218.5 407h30v60h-30z" fill="#6f8b94"/><path d="m248.5 377-15-30 15-30h30v60z" fill="#5a6e78"/><path d="m218.5 317h30v60h-30z" fill="#6f8b94"/><path d="m248.5 287-15-30 15-30h30v60z" fill="#5a6e78"/><path d="m218.5 227h30v60h-30z" fill="#6f8b94"/><path d="m338.5 257-15-15 15-15h30v30z" fill="#bdf2ff"/><path d="m308.5 227h30v30h-30z" fill="#fff"/><path d="m158.5 467-15-30 15-30h30v60z" fill="#5a6e78"/><path d="m128.5 407h30v60h-30z" fill="#6f8b94"/><path d="m158.5 377-15-30 15-30h30v60z" fill="#5a6e78"/><path d="m128.5 317h30v60h-30z" fill="#6f8b94"/><path d="m158.5 287-15-30 15-30h30v60z" fill="#5a6e78"/><path d="m128.5 227h30v60h-30z" fill="#6f8b94"/><path d="m338.5 467-15-60 15-60h30v120z" fill="#6241ea"/><path d="m308.5 347h30v120h-30z" fill="#725fee"/><path d="m368.5 167-90-68.5 90-68.5h30v137z" fill="#61ce5a"/><path d="m98.5 167v-137h270v30l-7.5 11.75 7.5 11.75v30l-7.5 11.75 7.5 11.75v30z" fill="#94e368"/><g fill="#fff"><path d="m361 91c-4.143 0-7.5-3.358-7.5-7.5v-16h-15v16c0 4.142-3.357 7.5-7.5 7.5s-7.5-3.358-7.5-7.5v-23.5c0-4.142 3.357-7.5 7.5-7.5h30c4.143 0 7.5 3.358 7.5 7.5v23.5c0 4.142-3.357 7.5-7.5 7.5z"/><path d="m361 144.5h-30c-4.143 0-7.5-3.358-7.5-7.5v-23.5c0-4.142 3.357-7.5 7.5-7.5s7.5 3.358 7.5 7.5v16h15v-16c0-4.142 3.357-7.5 7.5-7.5s7.5 3.358 7.5 7.5v23.5c0 4.142-3.357 7.5-7.5 7.5z"/></g></g></svg>